<svg xmlns="http://www.w3.org/2000/svg" xmlns:xlink="http://www.w3.org/1999/xlink" width="113.207" height="155.66" viewBox="0 0 113.207 155.66">
  <defs>
    <linearGradient id="linear-gradient" x2="1" y2="0.733" gradientUnits="objectBoundingBox">
      <stop offset="0" stop-color="#9eddf1"/>
      <stop offset="1" stop-color="#c649c4"/>
    </linearGradient>
  </defs>
  <path id="Icon_material-developer-mode" data-name="Icon material-developer-mode" d="M27.226,29.8H97.981V43.953h14.151v-28.3A14.132,14.132,0,0,0,97.981,1.571L27.226,1.5A14.192,14.192,0,0,0,13.075,15.651v28.3H27.226Zm59.5,82L119.207,79.33,86.731,46.854,76.754,56.9,99.184,79.33,76.754,101.759l9.976,10.047ZM48.453,101.759,26.023,79.33,48.453,56.9,38.476,46.854,6,79.33l32.476,32.476Zm49.528,27.1H27.226V114.707H13.075v28.3A14.192,14.192,0,0,0,27.226,157.16H97.981a14.192,14.192,0,0,0,14.151-14.151v-28.3H97.981Z" transform="translate(-6 -1.5)" fill="url(#linear-gradient)"/>
</svg>
