<svg id="Layer_1" data-name="Layer 1" xmlns="http://www.w3.org/2000/svg" viewBox="0 0 1040 1000"><defs><style>.cls-1{font-size:174.16px;font-family:PlayfairDisplay-Bold, Playfair Display;font-weight:700;letter-spacing:0.05em;}.cls-2{letter-spacing:0.04em;}.cls-3{letter-spacing:0.03em;}.cls-4,.cls-5{font-size:12px;letter-spacing:0.05em;}.cls-4{font-family:Montserrat-Regular, Montserrat;}.cls-5{font-family:Montserrat-Light, Montserrat;font-weight:300;}</style></defs><text class="cls-1" transform="translate(195.89 613.47)">S<tspan class="cls-2" x="110.42" y="0">e</tspan><tspan x="205.86" y="0">rvice</tspan><tspan x="21.51" y="208.99">Lead</tspan><tspan class="cls-2" x="444.89" y="208.99">e</tspan><tspan class="cls-3" x="540.33" y="208.99">r</tspan></text><text class="cls-4" transform="translate(115 449)">“</text><text class="cls-5" transform="translate(185.44 440.33)">“</text><path id="Icon_awesome-award" data-name="Icon awesome-award" d="M468.74,351.63c-4.7-4.69-2.25-3.37-13.58-6.4a39.2,39.2,0,0,1-13.74-7.2l-24.53,60.1a8.65,8.65,0,0,0,8.34,11.92L453.67,409l19.59,20.69a8.64,8.64,0,0,0,12.22.39,8.78,8.78,0,0,0,2.11-3.08l28.13-69A38.79,38.79,0,0,1,468.74,351.63Zm154.41,46.52L598.63,338a38.83,38.83,0,0,1-13.75,7.2c-11.38,3.07-8.89,1.72-13.57,6.4a38.8,38.8,0,0,1-47,6.37l28.14,69a8.65,8.65,0,0,0,11.27,4.74,8.56,8.56,0,0,0,3-2.06L586.34,409l28.44,1.08a8.65,8.65,0,0,0,8.34-11.9ZM558.4,339.4c8.26-8.4,9.23-7.68,21-10.88a22,22,0,0,0,15.38-15.67c4-15.37,3-13.5,14-24.73a22.4,22.4,0,0,0,5.63-21.39c-4-15.37-4-13.2,0-28.56a22.4,22.4,0,0,0-5.63-21.39c-11-11.23-10-9.39-14-24.73a22,22,0,0,0-15.38-15.67c-15.06-4.11-13.25-3.07-24.3-14.27a21.5,21.5,0,0,0-21-5.73c-15.07,4.11-13,4.11-28,0a21.55,21.55,0,0,0-21,5.72c-11,11.19-9.21,10.16-24.29,14.27A22,22,0,0,0,445.31,192c-4,15.38-3,13.5-14,24.73a22.42,22.42,0,0,0-5.63,21.4c4,15.32,4,13.19,0,28.55a22.43,22.43,0,0,0,5.63,21.4c11,11.23,10,9.38,14,24.73a22,22,0,0,0,15.37,15.66c12.1,3.3,13,2.78,21,10.89a21.48,21.48,0,0,0,26.9,3.14,21.45,21.45,0,0,1,23,0,21.47,21.47,0,0,0,26.86-3.15ZM469,250.72a51,51,0,1,1,51,51.9,51,51,0,0,1-51-51.9Z"/></svg>