<svg xmlns="http://www.w3.org/2000/svg" width="50.88" height="50.869" viewBox="0 0 50.88 50.869">
  <path id="Icon_awesome-instagram" data-name="Icon awesome-instagram" d="M25.44,14.63A13.042,13.042,0,1,0,38.483,27.672,13.021,13.021,0,0,0,25.44,14.63Zm0,21.521a8.479,8.479,0,1,1,8.479-8.479,8.494,8.494,0,0,1-8.479,8.479ZM42.058,14.1a3.042,3.042,0,1,1-3.042-3.042A3.035,3.035,0,0,1,42.058,14.1ZM50.7,17.184C50.5,13.109,49.572,9.5,46.587,6.525S40,2.621,35.929,2.416c-4.2-.238-16.788-.238-20.988,0-4.064.193-7.673,1.124-10.658,4.1S.378,13.1.174,17.173c-.238,4.2-.238,16.788,0,20.988C.366,42.235,1.3,45.845,4.283,48.819s6.583,3.9,10.658,4.109c4.2.238,16.788.238,20.988,0C40,52.735,43.613,51.8,46.587,48.819s3.9-6.583,4.109-10.658c.238-4.2.238-16.777,0-20.976ZM45.27,42.667A8.584,8.584,0,0,1,40.435,47.5c-3.348,1.328-11.294,1.022-14.994,1.022s-11.657.3-14.994-1.022a8.584,8.584,0,0,1-4.835-4.835C4.283,39.318,4.589,31.372,4.589,27.672s-.3-11.657,1.022-14.994a8.584,8.584,0,0,1,4.835-4.835C13.795,6.514,21.74,6.821,25.44,6.821s11.657-.3,14.994,1.022a8.584,8.584,0,0,1,4.835,4.835c1.328,3.348,1.022,11.294,1.022,14.994S46.6,39.329,45.27,42.667Z" transform="translate(0.005 -2.238)" fill="#efefef"/>
</svg>
