<svg xmlns="http://www.w3.org/2000/svg" xmlns:xlink="http://www.w3.org/1999/xlink" width="80.42" height="105.815" viewBox="0 0 80.42 105.815">
  <defs>
    <linearGradient id="linear-gradient" x1="0.5" x2="0.5" y2="1" gradientUnits="objectBoundingBox">
      <stop offset="0" stop-color="#9eddf1"/>
      <stop offset="1" stop-color="#c649c4"/>
    </linearGradient>
  </defs>
  <g id="Icon_ionic-ios-document" data-name="Icon ionic-ios-document" transform="translate(-7.313 -3.938)">
    <path id="Path_9" data-name="Path 9" d="M25.628,30.107H49.7a1.31,1.31,0,0,0,1.323-1.323h0a7.829,7.829,0,0,0-2.831-6.058L28.009,5.9a8.5,8.5,0,0,0-5.449-1.958h0A1.953,1.953,0,0,0,20.6,5.9V25.081A5.024,5.024,0,0,0,25.628,30.107Z" transform="translate(36.709 0.019)" fill="url(#linear-gradient)"/>
    <path id="Path_10" data-name="Path 10" d="M50.432,25.1V3.938H15.778A8.49,8.49,0,0,0,7.313,12.4v88.885a8.49,8.49,0,0,0,8.465,8.465H79.267a8.49,8.49,0,0,0,8.465-8.465V37h-25.4A11.922,11.922,0,0,1,50.432,25.1Z" transform="translate(0)" fill="url(#linear-gradient)"/>
  </g>
</svg>
