<svg xmlns="http://www.w3.org/2000/svg" width="52.617" height="42.735" viewBox="0 0 52.617 42.735">
  <path id="Icon_awesome-twitter" data-name="Icon awesome-twitter" d="M47.209,14.031c.033.467.033.935.033,1.4,0,14.256-10.851,30.682-30.682,30.682A30.474,30.474,0,0,1,0,41.275a22.309,22.309,0,0,0,2.6.133A21.6,21.6,0,0,0,15.992,36.8,10.8,10.8,0,0,1,5.909,29.322a13.6,13.6,0,0,0,2.037.167,11.405,11.405,0,0,0,2.838-.367A10.785,10.785,0,0,1,2.137,18.538V18.4a10.86,10.86,0,0,0,4.874,1.369A10.8,10.8,0,0,1,3.672,5.351,30.653,30.653,0,0,0,25.908,16.635a12.174,12.174,0,0,1-.267-2.471A10.794,10.794,0,0,1,44.3,6.786a21.231,21.231,0,0,0,6.844-2.6,10.755,10.755,0,0,1-4.741,5.943,21.618,21.618,0,0,0,6.21-1.669,23.181,23.181,0,0,1-5.408,5.575Z" transform="translate(0 -3.381)" fill="#efefef"/>
</svg>
