<svg xmlns="http://www.w3.org/2000/svg" xmlns:xlink="http://www.w3.org/1999/xlink" width="100" height="87.5" viewBox="0 0 100 87.5">
  <defs>
    <linearGradient id="linear-gradient" x2="1" y2="0.733" gradientUnits="objectBoundingBox">
      <stop offset="0" stop-color="#9eddf1"/>
      <stop offset="1" stop-color="#c649c4"/>
    </linearGradient>
  </defs>
  <path id="Icon_awesome-headphones" data-name="Icon awesome-headphones" d="M50,2.25a49.973,49.973,0,0,0-50,50v9.375a6.25,6.25,0,0,0,3.455,5.59l2.809,1.4A21.874,21.874,0,0,0,28.125,89.75h4.688A4.687,4.687,0,0,0,37.5,85.063V50.688A4.687,4.687,0,0,0,32.813,46H28.125A21.808,21.808,0,0,0,12.5,52.568V52.25a37.5,37.5,0,0,1,75,0v.318A21.808,21.808,0,0,0,71.875,46H67.188A4.687,4.687,0,0,0,62.5,50.688V85.063a4.687,4.687,0,0,0,4.688,4.688h4.688A21.874,21.874,0,0,0,93.736,68.62l2.809-1.4A6.25,6.25,0,0,0,100,61.625V52.25A49.973,49.973,0,0,0,50,2.25Z" transform="translate(0 -2.25)" fill="url(#linear-gradient)"/>
</svg>
